# xmcd CD database file
#
# Track frame offsets:
#	150
#	19757
#	38007
#	58312
#	77427
#	96165
#	115122
#	130680
#	151180
#	169782
#
# Disc length: 2584 seconds
#
# Revision: 0
# Processed by: cddbd v1.5.1PL0 Copyright (c) Steve Scherf et al.
# Submitted via: CDex 1.51
#
DISCID=700a160a
DTITLE=イルカ - LOOP CHILD
DYEAR=1900
DGENRE=Folk
TTITLE0=LOSTLOVE
TTITLE1=愛なき子
TTITLE2=のんのさん
TTITLE3=一人は今夜だけ
TTITLE4=少年
TTITLE5=ドール・ハウス
TTITLE6=インディゴ・ブルー
TTITLE7=ひらがなダンス
TTITLE8=ひぃふぅみぃのよ
TTITLE9=青春の光と影
EXTD=
EXTT0=
EXTT1=
EXTT2=
EXTT3=
EXTT4=
EXTT5=
EXTT6=
EXTT7=
EXTT8=
EXTT9=
PLAYORDER=
